<svg width="206" height="199" viewBox="0 0 206 199" fill="none" xmlns="http://www.w3.org/2000/svg">
<path d="M147.041 79.6598L151.442 75H188.202L192.603 79.6598V102.301C192.603 120.25 188.375 136.646 179.918 151.488C171.634 166.157 160.157 177.72 145.488 186.177C130.818 194.461 114.509 198.603 96.5603 198.603H4.142L0 194.979L0 10.6598L4.65975 6H41.42L46.0797 10.6598V153.041H96.5603C110.885 153.041 122.879 148.209 132.544 138.544C142.209 128.707 147.041 116.626 147.041 102.301V79.6598Z" fill="black"/>
<path d="M152.771 66.8447H186.229" stroke="black" stroke-width="4.55759" stroke-linecap="round" stroke-linejoin="round"/>
<path fill-rule="evenodd" clip-rule="evenodd" d="M155.18 57.6687H183.741C185.017 57.6687 186.445 56.6661 186.901 55.5115L199.176 21.1472C201.121 15.6477 198.842 13.9158 194.102 17.3188L182.982 25.249C181.037 26.6163 178.789 25.9175 177.938 23.6995L172.59 9.44938C170.889 4.89179 168.063 4.89179 166.361 9.44938L161.014 23.6995C160.163 25.9175 157.915 26.6163 155.94 25.249L144.09 16.7719C139.776 13.6728 137.679 15.2223 139.472 20.2661L152.051 55.4507C152.476 56.666 153.904 57.6687 155.18 57.6687ZM161.865 40.2587C160.606 40.2587 159.586 41.279 159.586 42.5375C159.586 43.796 160.606 44.8163 161.865 44.8163H177.057C178.315 44.8163 179.335 43.796 179.335 42.5375C179.335 41.279 178.315 40.2587 177.057 40.2587H161.865Z" fill="black"/>
</svg>
