<svg width="322" height="82" viewBox="0 0 322 82" fill="none" xmlns="http://www.w3.org/2000/svg">
<path d="M284.043 7H319.943L321.443 8.6V79.7L319.643 81.4H305.643L303.843 79.7V60.2H264.743V79.7L263.043 81.4H248.843L247.143 79.7V44.3C247.143 37.4333 248.743 31.1667 251.943 25.5C255.21 19.7667 259.643 15.2667 265.243 12C270.91 8.73333 277.176 7.06667 284.043 7ZM264.843 42.6H303.843V24.8H284.043C278.91 24.8 274.51 26.5 270.843 29.9C267.243 33.2333 265.243 37.4667 264.843 42.6Z" fill="black"/>
<path d="M165.695 8.8L167.495 7H181.695L183.495 8.8V63.8H238.395L240.095 65.5V79.7L238.395 81.4H167.495L165.695 79.7V8.8Z" fill="black"/>
<path d="M158.748 44.4C158.748 51.2666 157.114 57.5666 153.848 63.3C150.648 68.9666 146.214 73.4333 140.548 76.7C134.881 79.9 128.581 81.5 121.648 81.5C114.714 81.5 108.381 79.9 102.648 76.7C96.981 73.4333 92.5143 68.9666 89.2477 63.3C85.981 57.5666 84.3477 51.2666 84.3477 44.4C84.3477 37.4666 85.981 31.1666 89.2477 25.5C92.5143 19.7666 96.981 15.2666 102.648 12C108.381 8.73331 114.714 7.09998 121.648 7.09998C128.581 7.09998 134.881 8.73331 140.548 12C146.214 15.2666 150.648 19.7666 153.848 25.5C157.114 31.1666 158.748 37.4666 158.748 44.4ZM121.648 24.8C116.114 24.8 111.481 26.6666 107.748 30.4C104.014 34.1333 102.148 38.8 102.148 44.4C102.148 49.8666 104.014 54.4666 107.748 58.2C111.481 61.9333 116.114 63.8 121.648 63.8C127.114 63.8 131.714 61.9333 135.448 58.2C139.248 54.4666 141.148 49.8666 141.148 44.4C141.148 38.8 139.281 34.1333 135.548 30.4C131.814 26.6666 127.181 24.8 121.648 24.8Z" fill="black"/>
<path d="M58.9362 31.9288L60.7001 30.0611H75.4342L77.1981 31.9288V41.004C77.1981 48.198 75.5033 54.7696 72.1138 60.7185C68.7935 66.5983 64.1934 71.233 58.3136 74.6225C52.4338 77.9428 45.8969 79.603 38.7028 79.603H1.66017L0 78.1504L0 4.2726L1.8677 2.40491H16.6017L18.4694 4.2726V61.3411H38.7028C44.4442 61.3411 49.2518 59.4042 53.1256 55.5305C56.9993 51.5876 58.9362 46.7454 58.9362 41.004V31.9288Z" fill="black"/>
<path d="M61.2328 26.7923H74.6434" stroke="black" stroke-width="1.82675" stroke-linecap="round" stroke-linejoin="round"/>
<path fill-rule="evenodd" clip-rule="evenodd" d="M62.1985 23.1144H73.6462C74.1577 23.1144 74.73 22.7125 74.9127 22.2498L79.8328 8.47608C80.6122 6.2718 79.6988 5.57764 77.799 6.94161L73.3417 10.1202C72.5623 10.6682 71.6611 10.3881 71.3201 9.49906L69.1767 3.78742C68.4947 1.96067 67.3622 1.96067 66.6802 3.78742L64.5368 9.49906C64.1958 10.3881 63.2946 10.6682 62.503 10.1202L57.7535 6.7224C56.0241 5.48021 55.1838 6.1013 55.9024 8.12291L60.9442 22.2254C61.1147 22.7125 61.6871 23.1144 62.1985 23.1144ZM64.8778 16.1363C64.3734 16.1363 63.9644 16.5452 63.9644 17.0496C63.9644 17.5541 64.3734 17.963 64.8778 17.963H70.967C71.4714 17.963 71.8803 17.5541 71.8803 17.0496C71.8803 16.5452 71.4714 16.1363 70.967 16.1363H64.8778Z" fill="black"/>
</svg>
