<svg width="325" height="86" viewBox="0 0 325 86" fill="none" xmlns="http://www.w3.org/2000/svg">
<path d="M157.8 44.4C157.8 51.2667 156.167 57.5667 152.9 63.3C149.7 68.9667 145.267 73.4333 139.6 76.7C133.933 79.9 127.633 81.5 120.7 81.5C113.767 81.5 107.433 79.9 101.7 76.7C96.0333 73.4333 91.5667 68.9667 88.3 63.3C85.0333 57.5667 83.4 51.2667 83.4 44.4C83.4 37.4667 85.0333 31.1667 88.3 25.5C91.5667 19.7667 96.0333 15.2667 101.7 12C107.433 8.73333 113.767 7.1 120.7 7.1C127.633 7.1 133.933 8.73333 139.6 12C145.267 15.2667 149.7 19.7667 152.9 25.5C156.167 31.1667 157.8 37.4667 157.8 44.4ZM120.7 10.1C111.033 10.1 102.9 13.4 96.3 20C89.7 26.5333 86.4 34.6667 86.4 44.4C86.4 54.0667 89.7 62.1667 96.3 68.7C102.9 75.2333 111.033 78.5 120.7 78.5C130.433 78.5 138.533 75.2333 145 68.7C151.533 62.1667 154.8 54.0667 154.8 44.4C154.8 34.6667 151.533 26.5333 145 20C138.467 13.4 130.367 10.1 120.7 10.1ZM120.7 24.8C115.167 24.8 110.533 26.6667 106.8 30.4C103.067 34.1333 101.2 38.8 101.2 44.4C101.2 49.8667 103.067 54.4667 106.8 58.2C110.533 61.9333 115.167 63.8 120.7 63.8C126.167 63.8 130.767 61.9333 134.5 58.2C138.3 54.4667 140.2 49.8667 140.2 44.4C140.2 38.8 138.333 34.1333 134.6 30.4C130.867 26.6667 126.233 24.8 120.7 24.8ZM143.2 44.4C143.2 50.7333 141.033 56.0667 136.7 60.4C132.367 64.6667 127.033 66.8 120.7 66.8C114.3 66.8 108.933 64.6667 104.6 60.4C100.333 56.0667 98.2 50.7333 98.2 44.4C98.2 38 100.333 32.6333 104.6 28.3C108.933 23.9667 114.3 21.8 120.7 21.8C127.033 21.8 132.367 23.9667 136.7 28.3C141.033 32.5667 143.2 37.9333 143.2 44.4ZM179.548 10H167.748V78.4H236.148V66.8H180.948L179.548 65.2V10ZM164.748 8.8L166.548 7H180.748L182.548 8.8V63.8H237.448L239.148 65.5V79.7L237.448 81.4H166.548L164.748 79.7V8.8ZM283.095 10C273.429 10.0667 265.362 13.4 258.895 20C252.429 26.5333 249.195 34.6333 249.195 44.3V78.4H260.795V58.6L262.295 57.2H304.395L305.895 58.6V78.4H317.495V10H283.095ZM283.095 7H318.995L320.495 8.6V79.7L318.695 81.4H304.695L302.895 79.7V60.2H263.795V79.7L262.095 81.4H247.895L246.195 79.7V44.3C246.195 37.4333 247.795 31.1667 250.995 25.5C254.262 19.7667 258.695 15.2667 264.295 12C269.962 8.73333 276.229 7.06666 283.095 7ZM263.895 42.6H302.895V24.8H283.095C277.962 24.8 273.562 26.5 269.895 29.9C266.295 33.2333 264.295 37.4667 263.895 42.6ZM283.095 21.8H304.395L305.895 23.2V44L304.395 45.6H262.295L260.795 44C260.862 37.7333 263.029 32.4667 267.295 28.2C271.562 23.9333 276.829 21.8 283.095 21.8ZM246.895 45.4C246.629 45.0667 246.495 44.7 246.495 44.3C246.495 43.9 246.629 43.5667 246.895 43.3C247.162 42.9667 247.495 42.8 247.895 42.8C248.362 42.8 248.729 42.9667 248.995 43.3C249.329 43.5667 249.495 43.9 249.495 44.3C249.495 44.7 249.329 45.0667 248.995 45.4C248.729 45.6667 248.362 45.8 247.895 45.8C247.495 45.8 247.162 45.6667 246.895 45.4Z" fill="black"/>
<path d="M59.5043 32.6677L61.2853 30.8H76.1614L77.9423 32.6677V41.4C77.9423 48.5943 76.2312 55.1659 72.809 61.115C69.4567 66.995 64.8122 71.6297 58.8758 75.0193C52.9393 78.3398 46.3393 80 39.0759 80H1.67618L0 78.5473V4.66773L1.8857 2.79999H16.7618L18.6475 4.66773V61.7376H39.0759C44.8727 61.7376 49.7266 59.8007 53.6377 55.9269C57.5488 51.9839 59.5043 47.1416 59.5043 41.4V32.6677ZM3.14283 76.8871H39.0759C49.2028 76.8871 57.6885 73.4975 64.5329 66.7183C71.3773 59.8699 74.7995 51.4305 74.7995 41.4V33.9129H62.6472V41.4C62.6472 48.0409 60.3774 53.6095 55.8377 58.1059C51.2981 62.6023 45.7108 64.8505 39.0759 64.8505H16.9713L15.5046 63.1903V5.91289H3.14283V76.8871Z" fill="black"/>
<path d="M61.6244 23.0318L62.5178 22.7191L62.5156 22.7132L61.6244 23.0318ZM56.3996 8.41763L55.5077 8.73461L55.5083 8.73627L56.3996 8.41763ZM58.3179 6.96631L57.7657 7.73505L57.7672 7.73612L58.3179 6.96631ZM63.2397 10.4873L62.689 11.2572C62.693 11.26 62.697 11.2628 62.701 11.2656L63.2397 10.4873ZM65.3473 9.84371L66.2311 10.1827L66.2335 10.1763L65.3473 9.84371ZM67.5685 3.92484L68.4546 4.25739L68.4552 4.25589L67.5685 3.92484ZM70.1556 3.92484L69.2689 4.25589L69.2694 4.25739L70.1556 3.92484ZM72.3768 9.84371L71.4906 10.1763L71.493 10.1827L72.3768 9.84371ZM74.4717 10.4873L75.0161 11.2616L75.0213 11.258L74.4717 10.4873ZM79.0907 7.19347L79.6403 7.96411L79.6427 7.96235L79.0907 7.19347ZM81.1983 8.78362L82.0896 9.10201L82.0907 9.09915L81.1983 8.78362ZM76.0997 23.0571L76.9801 23.4046C76.9839 23.3949 76.9876 23.3852 76.9911 23.3755L76.0997 23.0571ZM74.7872 23.0066H62.9242V24.8996H74.7872V23.0066ZM62.9242 23.0066C62.8949 23.0066 62.8011 22.9886 62.688 22.9088C62.5752 22.829 62.5275 22.7471 62.5177 22.7191L60.731 23.3445C60.8979 23.8213 61.2351 24.2 61.5955 24.4547C61.9558 24.7093 62.4235 24.8996 62.9242 24.8996V23.0066ZM62.5156 22.7132L57.2909 8.09899L55.5083 8.73627L60.7331 23.3505L62.5156 22.7132ZM57.2915 8.10064C57.1252 7.63274 57.077 7.31883 57.0796 7.13996C57.0824 6.95012 57.1328 7.0626 56.9759 7.18044C56.8194 7.29805 56.7256 7.21865 56.908 7.26848C57.0797 7.31537 57.366 7.44795 57.7657 7.73505L58.8701 6.19756C58.3737 5.84103 57.8791 5.57135 57.4068 5.44234C56.9452 5.31628 56.3443 5.28735 55.839 5.66684C55.3335 6.04654 55.1939 6.63228 55.1868 7.1121C55.1796 7.60289 55.3018 8.15504 55.5077 8.73461L57.2915 8.10064ZM57.7672 7.73612L62.689 11.2572L63.7905 9.71753L58.8686 6.1965L57.7672 7.73612ZM62.701 11.2656C63.3167 11.6918 64.053 11.8417 64.7465 11.6288C65.44 11.4159 65.964 10.8788 66.2311 10.1827L64.4636 9.50474C64.3772 9.72985 64.2577 9.79862 64.1908 9.81915C64.1239 9.83969 63.9831 9.85076 63.7785 9.70913L62.701 11.2656ZM66.2335 10.1763L68.4546 4.25739L66.6823 3.59229L64.4611 9.51116L66.2335 10.1763ZM68.4552 4.25589C68.606 3.85203 68.7569 3.62022 68.864 3.50522C68.968 3.39362 68.9691 3.45158 68.862 3.45158C68.7549 3.45158 68.7561 3.39362 68.8601 3.50522C68.9672 3.62022 69.1181 3.85203 69.2689 4.25589L71.0423 3.59379C70.8398 3.05113 70.5789 2.57306 70.2451 2.2148C69.9082 1.85314 69.4392 1.55855 68.862 1.55855C68.2848 1.55855 67.8159 1.85314 67.479 2.2148C67.1452 2.57306 66.8843 3.05113 66.6817 3.59379L68.4552 4.25589ZM69.2694 4.25739L71.4906 10.1763L73.2629 9.51116L71.0418 3.59229L69.2694 4.25739ZM71.493 10.1827C71.7599 10.8784 72.2835 11.4152 72.975 11.6285C73.6676 11.842 74.4037 11.6923 75.0161 11.2616L73.9273 9.71307C73.7321 9.85033 73.5973 9.83939 73.5328 9.81948C73.4671 9.79922 73.347 9.73031 73.2605 9.50474L71.493 10.1827ZM75.0213 11.258L79.6403 7.96411L78.5412 6.42283L73.9222 9.71671L75.0213 11.258ZM79.6427 7.96235C80.0864 7.64379 80.41 7.49263 80.6117 7.43798C80.8232 7.38066 80.7535 7.4618 80.6148 7.35686C80.4772 7.25283 80.5366 7.16594 80.5402 7.38799C80.5436 7.59897 80.488 7.95323 80.3059 8.46808L82.0907 9.09915C82.3125 8.47187 82.4414 7.87962 82.433 7.35744C82.4247 6.84634 82.2759 6.23966 81.7566 5.84694C81.236 5.45331 80.611 5.47687 80.1166 5.61083C79.6124 5.74745 79.0794 6.03642 78.5387 6.42459L79.6427 7.96235ZM80.3069 8.46522L75.2084 22.7387L76.9911 23.3755L82.0896 9.10201L80.3069 8.46522ZM75.2193 22.7095C75.2087 22.7364 75.1551 22.8222 75.0344 22.9054C74.9141 22.9882 74.8171 23.0066 74.7872 23.0066V24.8996C75.2874 24.8996 75.752 24.7097 76.1081 24.4644C76.4638 24.2195 76.8014 23.8572 76.9801 23.4046L75.2193 22.7095Z" fill="black"/>
<path d="M61.9147 27.5H75.7969" stroke="black" stroke-width="1.89303" stroke-linecap="round" stroke-linejoin="round"/>
<path fill-rule="evenodd" clip-rule="evenodd" d="M64.7543 17.6683C64.7543 17.1455 65.1781 16.7217 65.7008 16.7217H72.0109C72.5337 16.7217 72.9575 17.1455 72.9575 17.6683C72.9575 18.191 72.5337 18.6148 72.0109 18.6148H65.7008C65.1781 18.6148 64.7543 18.191 64.7543 17.6683Z" fill="black"/>
</svg>
