<svg width="208" height="200" viewBox="0 0 208 200" fill="none" xmlns="http://www.w3.org/2000/svg">
<path d="M147.344 81.6694L151.754 77H188.59L193 81.6694V103.5C193 121.486 188.763 137.915 180.289 152.788C171.988 167.487 160.487 179.074 145.788 187.548C131.088 195.849 114.745 200 96.7594 200H4.15054L0 196.368V11.6694L4.66935 7H41.5054L46.1747 11.6694V154.344H96.7594C111.113 154.344 123.133 149.502 132.817 139.817C142.502 129.96 147.344 117.854 147.344 103.5V81.6694ZM7.78226 192.218H96.7594C121.836 192.218 142.848 183.744 159.796 166.796C176.744 149.675 185.218 128.576 185.218 103.5V84.7822H155.126V103.5C155.126 120.102 149.506 134.024 138.265 145.265C127.024 156.506 113.189 162.126 96.7594 162.126H42.0242L38.3925 157.976V14.7822H7.78226V192.218Z" fill="black"/>
<path d="M152.594 57.0312L154.806 56.257C154.804 56.2521 154.802 56.2471 154.801 56.2422L152.594 57.0312ZM139.656 20.8437L137.448 21.6286L137.449 21.6327L139.656 20.8437ZM144.406 17.25L143.039 19.1535L143.043 19.1562L144.406 17.25ZM156.594 25.9687L155.23 27.8749C155.24 27.8819 155.25 27.8889 155.26 27.8957L156.594 25.9687ZM161.813 24.375L164.001 25.2143C164.003 25.209 164.005 25.2037 164.007 25.1984L161.813 24.375ZM167.313 9.71872L169.507 10.5422L169.508 10.5385L167.313 9.71872ZM173.719 9.71872L171.523 10.5385L171.524 10.5422L173.719 9.71872ZM179.219 24.375L177.024 25.1984C177.026 25.2037 177.028 25.209 177.03 25.2143L179.219 24.375ZM184.406 25.9687L185.754 27.886C185.759 27.883 185.763 27.88 185.767 27.877L184.406 25.9687ZM195.844 17.8125L197.205 19.7207L197.211 19.7164L195.844 17.8125ZM201.063 21.75L203.27 22.5384L203.272 22.5313L201.063 21.75ZM188.438 57.0937L190.618 57.9543C190.627 57.9304 190.636 57.9063 190.645 57.8822L188.438 57.0937ZM185.188 56.9687H155.813V61.6562H185.188V56.9687ZM155.813 56.9687C155.74 56.9687 155.507 56.9243 155.228 56.7266C154.948 56.5291 154.83 56.3263 154.806 56.257L150.382 57.8055C150.795 58.9861 151.63 59.924 152.522 60.5547C153.414 61.185 154.573 61.6562 155.813 61.6562V56.9687ZM154.801 56.2422L141.863 20.0547L137.449 21.6327L150.387 57.8203L154.801 56.2422ZM141.865 20.0588C141.453 18.9002 141.334 18.1229 141.34 17.68C141.347 17.2099 141.472 17.4884 141.083 17.7802C140.696 18.0714 140.463 17.8748 140.915 17.9982C141.34 18.1143 142.049 18.4426 143.039 19.1535L145.774 15.3464C144.545 14.4636 143.32 13.7958 142.15 13.4763C141.007 13.1642 139.519 13.0926 138.268 14.0322C137.016 14.9725 136.671 16.4229 136.653 17.611C136.635 18.8263 136.938 20.1935 137.448 21.6286L141.865 20.0588ZM143.043 19.1562L155.23 27.8749L157.957 24.0625L145.77 15.3438L143.043 19.1562ZM155.26 27.8957C156.784 28.9513 158.607 29.3225 160.325 28.7952C162.042 28.2679 163.34 26.9382 164.001 25.2143L159.624 23.5356C159.41 24.093 159.114 24.2633 158.949 24.3142C158.783 24.365 158.434 24.3924 157.928 24.0417L155.26 27.8957ZM164.007 25.1984L169.507 10.5422L165.118 8.89526L159.618 23.5515L164.007 25.1984ZM169.508 10.5385C169.882 9.53844 170.255 8.96442 170.521 8.67966C170.778 8.40332 170.781 8.54684 170.516 8.54684C170.25 8.54684 170.253 8.40332 170.511 8.67966C170.776 8.96442 171.15 9.53844 171.523 10.5385L175.914 8.89899C175.413 7.55525 174.767 6.37146 173.94 5.48435C173.106 4.58881 171.945 3.85935 170.516 3.85935C169.086 3.85935 167.925 4.58881 167.091 5.48435C166.264 6.37146 165.618 7.55525 165.117 8.89899L169.508 10.5385ZM171.524 10.5422L177.024 25.1984L181.413 23.5515L175.913 8.89526L171.524 10.5422ZM177.03 25.2143C177.691 26.937 178.988 28.2664 180.7 28.7944C182.415 29.3232 184.238 28.9523 185.754 27.886L183.058 24.0515C182.575 24.3914 182.241 24.3643 182.081 24.315C181.919 24.2648 181.621 24.0942 181.407 23.5356L177.03 25.2143ZM185.767 27.877L197.205 19.7207L194.483 15.9042L183.045 24.0605L185.767 27.877ZM197.211 19.7164C198.309 18.9276 199.111 18.5532 199.61 18.4179C200.134 18.276 199.961 18.4769 199.618 18.2171C199.277 17.9595 199.424 17.7443 199.433 18.2941C199.441 18.8166 199.304 19.6938 198.853 20.9687L203.272 22.5313C203.821 20.978 204.141 19.5115 204.12 18.2185C204.099 16.9529 203.731 15.4506 202.445 14.4782C201.156 13.5035 199.608 13.5618 198.384 13.8936C197.136 14.2319 195.816 14.9474 194.477 15.9086L197.211 19.7164ZM198.855 20.9616L186.23 56.3053L190.645 57.8822L203.27 22.5384L198.855 20.9616ZM186.257 56.2332C186.231 56.2998 186.098 56.5123 185.799 56.7182C185.502 56.9233 185.262 56.9687 185.188 56.9687V61.6562C186.426 61.6562 187.576 61.1861 188.458 60.5787C189.339 59.9721 190.175 59.0751 190.618 57.9543L186.257 56.2332Z" fill="black"/>
<path d="M153.312 68.75H187.688" stroke="black" stroke-width="4.6875" stroke-linecap="round" stroke-linejoin="round"/>
<path fill-rule="evenodd" clip-rule="evenodd" d="M160.344 43.75C160.344 42.4556 161.393 41.4062 162.687 41.4062H178.313C179.607 41.4062 180.656 42.4556 180.656 43.75C180.656 45.0444 179.607 46.0937 178.313 46.0937H162.687C161.393 46.0937 160.344 45.0444 160.344 43.75Z" fill="black"/>
</svg>
